<?xml version="1.0" encoding="utf-8"?>
<!-- Generator: Adobe Illustrator 18.1.1, SVG Export Plug-In . SVG Version: 6.00 Build 0)  -->
<!DOCTYPE svg PUBLIC "-//W3C//DTD SVG 1.1//EN" "http://www.w3.org/Graphics/SVG/1.1/DTD/svg11.dtd">
<svg version="1.1" id="Layer_1" xmlns="http://www.w3.org/2000/svg" xmlns:xlink="http://www.w3.org/1999/xlink" x="0px" y="0px"
	 viewBox="190 396.9 50 50" enable-background="new 190 396.9 50 50" xml:space="preserve">
<g>
	<g>
		<polygon fill="#FFFFFF" points="228.3,427.4 209.8,427.4 202.1,409.7 197.2,409.7 197.2,407.5 203.5,407.5 211.3,425.2 
			228.3,425.2 		"/>
	</g>
	<path fill="#FFFFFF" d="M217.2,433c0,1.8-1.5,3.3-3.3,3.3s-3.3-1.5-3.3-3.3s1.5-3.3,3.3-3.3S217.2,431.1,217.2,433z"/>
	<path fill="#FFFFFF" d="M228.3,433c0,1.8-1.5,3.3-3.3,3.3s-3.3-1.5-3.3-3.3s1.5-3.3,3.3-3.3S228.3,431.1,228.3,433z"/>
	<g>
		<polygon fill="#FFFFFF" points="231.9,414.1 232.8,411.9 208.3,411.9 209.2,414.1 		"/>
		<polygon fill="#FFFFFF" points="211.9,420.8 212.8,423 228.3,423 229.2,420.8 		"/>
		<polygon fill="#FFFFFF" points="231,416.3 210.1,416.3 211,418.6 230.1,418.6 		"/>
	</g>
</g>
</svg>
