<?xml version="1.0" encoding="utf-8"?>
<!-- Generator: Adobe Illustrator 18.1.1, SVG Export Plug-In . SVG Version: 6.00 Build 0)  -->
<!DOCTYPE svg PUBLIC "-//W3C//DTD SVG 1.1//EN" "http://www.w3.org/Graphics/SVG/1.1/DTD/svg11.dtd">
<svg version="1.1"
	 id="svg3013" inkscape:version="0.48.3.1 r9886" sodipodi:docname="barcode_font_awesome.svg" xmlns:cc="http://creativecommons.org/ns#" xmlns:dc="http://purl.org/dc/elements/1.1/" xmlns:rdf="http://www.w3.org/1999/02/22-rdf-syntax-ns#" xmlns:inkscape="http://www.inkscape.org/namespaces/inkscape" xmlns:sodipodi="http://sodipodi.sourceforge.net/DTD/sodipodi-0.dtd" xmlns:svg="http://www.w3.org/2000/svg"
	 xmlns="http://www.w3.org/2000/svg" xmlns:xlink="http://www.w3.org/1999/xlink" x="0px" y="0px" viewBox="0 0 595.3 841.9"
	 enable-background="new 0 0 595.3 841.9" xml:space="preserve">
<sodipodi:namedview  inkscape:current-layer="svg3013" inkscape:window-maximized="0" inkscape:window-y="25" inkscape:window-x="0" inkscape:window-height="480" inkscape:pageshadow="2" inkscape:pageopacity="0" inkscape:window-width="640" inkscape:cx="896" inkscape:cy="896" borderopacity="1" showgrid="false" inkscape:zoom="0.13169643" objecttolerance="10" gridtolerance="10" guidetolerance="10" pagecolor="#ffffff" bordercolor="#666666" id="namedview3019">
	</sodipodi:namedview>
<path id="path3017" inkscape:connector-curvature="0" d="M350.5,137.1v183.4h-18.1V137.1H350.5z M395.8,137.1v183.4h-18.1V137.1
	H395.8z M209.8,137.1v183.4h-18.1V137.1H209.8z M314.3,137.1v183.4h-54.9V137.1H314.3z M245.2,137.1v183.4H229V137.1H245.2z
	 M173.6,137.1v183.4h-36.2V137.1H173.6z"/>
<circle fill="#FFFFFF" cx="325.8" cy="267.8" r="91.2"/>
<g id="g3027" transform="matrix(1,0,0,-1,60.745763,1201.8983)">
	<path id="path3029" inkscape:connector-curvature="0" d="M315,932.9c0,13.8-4.9,25.5-14.7,35.3c-9.8,9.8-21.6,14.7-35.3,14.7
		c-13.8,0-25.5-4.9-35.3-14.7c-9.8-9.8-14.7-21.6-14.7-35.3c0-13.8,4.9-25.5,14.7-35.3s21.6-14.7,35.3-14.7
		c13.8,0,25.5,4.9,35.3,14.7C310.1,907.3,315,919.1,315,932.9z M372.2,840c0-3.9-1.4-7.2-4.2-10s-6.2-4.2-10-4.2
		c-4,0-7.4,1.4-10,4.2l-38.3,38.2c-13.3-9.2-28.2-13.8-44.5-13.8c-10.6,0-20.8,2.1-30.5,6.2c-9.7,4.1-18.1,9.7-25.1,16.7
		c-7,7-12.6,15.4-16.7,25.1c-4.1,9.7-6.2,19.9-6.2,30.5s2.1,20.8,6.2,30.5c4.1,9.7,9.7,18.1,16.7,25.1c7,7,15.4,12.6,25.1,16.7
		c9.7,4.1,19.9,6.2,30.5,6.2s20.8-2.1,30.5-6.2c9.7-4.1,18.1-9.7,25.1-16.7c7-7,12.6-15.4,16.7-25.1c4.1-9.7,6.2-19.9,6.2-30.5
		c0-16.4-4.6-31.2-13.8-44.5l38.3-38.3C370.8,847.3,372.2,843.9,372.2,840z"/>
</g>
<path id="path3017_1_" inkscape:connector-curvature="0" d="M363,481.2v183.4h-18.1V481.2H363z M408.3,481.2v183.4h-18.1V481.2
	H408.3z M222.3,481.2v183.4h-18.1V481.2H222.3z M326.8,481.2v183.4h-54.9V481.2H326.8z M257.7,481.2v183.4h-16.2V481.2H257.7z
	 M186.1,481.2v183.4h-36.2V481.2H186.1z"/>
<circle fill="#FFFFFF" cx="338.3" cy="611.9" r="91.2"/>
<g id="g3027_1_" transform="matrix(1,0,0,-1,60.745763,1201.8983)">
	<path id="path3029_1_" inkscape:connector-curvature="0" d="M327.5,588.8c0,13.8-4.9,25.5-14.7,35.3c-9.8,9.8-21.6,14.7-35.3,14.7
		s-25.5-4.9-35.3-14.7c-9.8-9.8-14.7-21.6-14.7-35.3c0-13.8,4.9-25.5,14.7-35.3s21.6-14.7,35.3-14.7s25.5,4.9,35.3,14.7
		C322.6,563.2,327.5,575,327.5,588.8z M384.7,495.9c0-3.9-1.4-7.2-4.2-10s-6.2-4.2-10-4.2c-4,0-7.4,1.4-10,4.2L322,524
		c-13.3-9.2-28.2-13.8-44.5-13.8c-10.6,0-20.8,2.1-30.5,6.2s-18.1,9.7-25.1,16.7c-7,7-12.6,15.4-16.7,25.1
		c-4.1,9.7-6.2,19.9-6.2,30.5c0,10.6,2.1,20.8,6.2,30.5c4.1,9.7,9.7,18.1,16.7,25.1c7,7,15.4,12.6,25.1,16.7
		c9.7,4.1,19.9,6.2,30.5,6.2s20.8-2.1,30.5-6.2c9.7-4.1,18.1-9.7,25.1-16.7c7-7,12.6-15.4,16.7-25.1c4.1-9.7,6.2-19.9,6.2-30.5
		c0-16.4-4.6-31.2-13.8-44.5l38.3-38.3C383.3,503.2,384.7,499.8,384.7,495.9z"/>
</g>
</svg>
