<?xml version="1.0" encoding="utf-8"?>
<!-- Generator: Adobe Illustrator 18.1.1, SVG Export Plug-In . SVG Version: 6.00 Build 0)  -->
<!DOCTYPE svg PUBLIC "-//W3C//DTD SVG 1.1//EN" "http://www.w3.org/Graphics/SVG/1.1/DTD/svg11.dtd">
<svg version="1.1"
	 id="svg3025" inkscape:version="0.48.3.1 r9886" sodipodi:docname="search_font_awesome.svg" xmlns:cc="http://creativecommons.org/ns#" xmlns:dc="http://purl.org/dc/elements/1.1/" xmlns:rdf="http://www.w3.org/1999/02/22-rdf-syntax-ns#" xmlns:inkscape="http://www.inkscape.org/namespaces/inkscape" xmlns:sodipodi="http://sodipodi.sourceforge.net/DTD/sodipodi-0.dtd" xmlns:svg="http://www.w3.org/2000/svg"
	 xmlns="http://www.w3.org/2000/svg" xmlns:xlink="http://www.w3.org/1999/xlink" x="0px" y="0px" viewBox="0 179.9 642 532"
	 enable-background="new 0 179.9 642 532" xml:space="preserve">
<sodipodi:namedview  inkscape:current-layer="svg3025" inkscape:window-maximized="0" inkscape:window-y="25" inkscape:window-x="0" inkscape:window-height="480" inkscape:pageshadow="2" inkscape:pageopacity="0" inkscape:window-width="640" inkscape:cx="896" inkscape:cy="896" borderopacity="1" showgrid="false" inkscape:zoom="0.13169643" objecttolerance="10" gridtolerance="10" guidetolerance="10" pagecolor="#ffffff" bordercolor="#666666" id="namedview3031">
	</sodipodi:namedview>
<g>
	<g opacity="0.5">
		<path fill="#024AB2" d="M437.4,309.4V233h-32.2v70.8C416.2,304.6,427,306.5,437.4,309.4z"/>
		<path fill="#024AB2" d="M518.1,361.7V233h-32.2v99.2C497.8,340.6,508.7,350.5,518.1,361.7z"/>
		<path fill="#024AB2" d="M372.9,304.7V233h-97.8v121.5C300.3,327.7,334.5,309.5,372.9,304.7z"/>
		<rect x="57.8" y="233" fill="#024AB2" width="64.5" height="326.7"/>
		<path fill="#024AB2" d="M230.9,465.8c0-27.5,6.8-53.4,18.9-76.1V233h-28.9v326.7h28.9v-17.8C237.8,519.2,230.9,493.3,230.9,465.8z
			"/>
		<rect x="154.5" y="233" fill="#024AB2" width="32.2" height="326.7"/>
	</g>
	<g id="g3027_1_" transform="matrix(1,0,0,-1,60.745763,1201.8983)" opacity="0.5">
		<path id="path3029_1_" inkscape:connector-curvature="0" fill="#024AB2" d="M421.6,733.9c0,24.6-8.7,45.4-26.2,62.9
			c-17.5,17.5-38.5,26.2-62.9,26.2s-45.4-8.7-62.9-26.2s-26.2-38.5-26.2-62.9c0-24.6,8.7-45.4,26.2-62.9s38.5-26.2,62.9-26.2
			c24.4,0,45.4,8.7,62.9,26.2C412.9,688.3,421.6,709.3,421.6,733.9z M523.5,568.4c0-6.9-2.5-12.8-7.5-17.8c-5-5-11-7.5-17.8-7.5
			c-7.1,0-13.2,2.5-17.8,7.5l-68.6,67.9c-23.7-16.4-50.2-24.6-79.3-24.6c-18.9,0-37.1,3.7-54.3,11c-17.3,7.3-32.2,17.3-44.7,29.7
			c-12.5,12.5-22.4,27.4-29.7,44.7c-7.3,17.3-11,35.4-11,54.3c0,18.9,3.7,37.1,11,54.3c7.3,17.3,17.3,32.2,29.7,44.7
			c12.5,12.5,27.4,22.4,44.7,29.7c17.3,7.3,35.4,11,54.3,11s37.1-3.7,54.3-11c17.3-7.3,32.2-17.3,44.7-29.7
			c12.5-12.5,22.4-27.4,29.7-44.7c7.3-17.3,11-35.4,11-54.3c0-29.2-8.2-55.6-24.6-79.3l68.2-68.2C521,581.4,523.5,575.4,523.5,568.4
			z"/>
	</g>
</g>
</svg>
