<?xml version="1.0" encoding="utf-8"?>
<!-- Generator: Adobe Illustrator 18.1.1, SVG Export Plug-In . SVG Version: 6.00 Build 0)  -->
<!DOCTYPE svg PUBLIC "-//W3C//DTD SVG 1.1//EN" "http://www.w3.org/Graphics/SVG/1.1/DTD/svg11.dtd">
<svg version="1.1"
	 id="svg3025" sodipodi:docname="search_font_awesome.svg" inkscape:version="0.48.3.1 r9886" xmlns:dc="http://purl.org/dc/elements/1.1/" xmlns:cc="http://creativecommons.org/ns#" xmlns:rdf="http://www.w3.org/1999/02/22-rdf-syntax-ns#" xmlns:inkscape="http://www.inkscape.org/namespaces/inkscape" xmlns:svg="http://www.w3.org/2000/svg" xmlns:sodipodi="http://sodipodi.sourceforge.net/DTD/sodipodi-0.dtd"
	 xmlns="http://www.w3.org/2000/svg" xmlns:xlink="http://www.w3.org/1999/xlink" x="0px" y="0px" viewBox="0 381.9 595.3 460"
	 enable-background="new 0 381.9 595.3 460" xml:space="preserve">
<g>
	
		<sodipodi:namedview  inkscape:pageshadow="2" inkscape:window-height="480" inkscape:window-x="0" inkscape:window-y="25" inkscape:window-maximized="0" inkscape:current-layer="svg3025" inkscape:pageopacity="0" inkscape:window-width="640" guidetolerance="10" bordercolor="#666666" id="namedview3031" showgrid="false" gridtolerance="10" inkscape:cy="896" borderopacity="1" objecttolerance="10" pagecolor="#ffffff" inkscape:zoom="0.13169643" inkscape:cx="896">
		</sodipodi:namedview>
	<path fill="#FFFFFF" d="M403.8,493.2v-70.8h-29.9V488C384.1,488.7,394.1,490.5,403.8,493.2z"/>
	<path fill="#FFFFFF" d="M478.6,541.7V422.3h-29.9v92C459.8,522.1,469.9,531.3,478.6,541.7z"/>
	<path fill="#FFFFFF" d="M344,488.8v-66.5h-90.7V535C276.6,510.1,308.4,493.3,344,488.8z"/>
	<rect x="51.8" y="422.3" fill="#FFFFFF" width="59.8" height="302.9"/>
	<path fill="#FFFFFF" d="M212.3,638.2c0-25.5,6.3-49.5,17.5-70.6V422.3H203v302.9h26.8v-16.5C218.7,687.7,212.3,663.7,212.3,638.2z"
		/>
	<rect x="141.5" y="422.3" fill="#FFFFFF" width="29.9" height="302.9"/>
	<path id="path3029_1_" inkscape:connector-curvature="0" fill="#FFFFFF" d="M445.4,640.2c0-22.8-8.1-42.1-24.3-58.3
		c-16.2-16.2-35.7-24.3-58.3-24.3c-22.6,0-42.1,8.1-58.3,24.3c-16.2,16.2-24.3,35.7-24.3,58.3c0,22.8,8.1,42.1,24.3,58.3
		c16.2,16.2,35.7,24.3,58.3,24.3s42.1-8.1,58.3-24.3C437.3,682.5,445.4,663,445.4,640.2z M539.9,793.7c0,6.4-2.3,11.9-7,16.5
		c-4.6,4.6-10.2,7-16.5,7c-6.6,0-12.2-2.3-16.5-7l-63.6-63c-22,15.2-46.5,22.8-73.5,22.8c-17.5,0-34.4-3.4-50.3-10.2
		c-16-6.8-29.9-16-41.4-27.5c-11.6-11.6-20.8-25.4-27.5-41.4c-6.8-16-10.2-32.8-10.2-50.3c0-17.5,3.4-34.4,10.2-50.3
		c6.8-16,16-29.9,27.5-41.4c11.6-11.6,25.4-20.8,41.4-27.5c16-6.8,32.8-10.2,50.3-10.2s34.4,3.4,50.3,10.2c16,6.8,29.9,16,41.4,27.5
		c11.6,11.6,20.8,25.4,27.5,41.4c6.7,16,10.2,32.8,10.2,50.3c0,27.1-7.6,51.6-22.8,73.5l63.2,63.2
		C537.6,781.6,539.9,787.2,539.9,793.7z"/>
</g>
</svg>
