<?xml version="1.0" encoding="utf-8"?>
<!-- Generator: Adobe Illustrator 18.1.1, SVG Export Plug-In . SVG Version: 6.00 Build 0)  -->
<!DOCTYPE svg PUBLIC "-//W3C//DTD SVG 1.1//EN" "http://www.w3.org/Graphics/SVG/1.1/DTD/svg11.dtd">
<svg version="1.1"
	 id="svg3025" inkscape:version="0.48.3.1 r9886" sodipodi:docname="search_font_awesome.svg" xmlns:cc="http://creativecommons.org/ns#" xmlns:dc="http://purl.org/dc/elements/1.1/" xmlns:rdf="http://www.w3.org/1999/02/22-rdf-syntax-ns#" xmlns:inkscape="http://www.inkscape.org/namespaces/inkscape" xmlns:sodipodi="http://sodipodi.sourceforge.net/DTD/sodipodi-0.dtd" xmlns:svg="http://www.w3.org/2000/svg"
	 xmlns="http://www.w3.org/2000/svg" xmlns:xlink="http://www.w3.org/1999/xlink" x="0px" y="0px" viewBox="0 0 595.3 841.9"
	 enable-background="new 0 0 595.3 841.9" xml:space="preserve">
<sodipodi:namedview  inkscape:current-layer="svg3025" inkscape:window-maximized="0" inkscape:window-y="25" inkscape:window-x="0" inkscape:window-height="480" inkscape:pageshadow="2" inkscape:pageopacity="0" inkscape:window-width="640" inkscape:cx="896" inkscape:cy="896" borderopacity="1" showgrid="false" inkscape:zoom="0.13169643" objecttolerance="10" gridtolerance="10" guidetolerance="10" pagecolor="#ffffff" bordercolor="#666666" id="namedview3031">
	</sodipodi:namedview>
<g id="g3027" transform="matrix(1,0,0,-1,60.745763,1201.8983)">
	<path id="path3029" inkscape:connector-curvature="0" fill="#FFFFFF" d="M342.1,884.2c0,41-14.6,76-43.7,105.1
		s-64.2,43.7-105.1,43.7s-76-14.6-105.1-43.7s-43.7-64.2-43.7-105.1c0-41,14.6-76,43.7-105.1c29.1-29.1,64.2-43.7,105.1-43.7
		s76,14.6,105.1,43.7C327.6,808.1,342.1,843.2,342.1,884.2z M512.2,607.8c0-11.5-4.2-21.5-12.6-29.9s-18.4-12.6-29.9-12.6
		c-12,0-21.9,4.2-29.9,12.6l-114,113.6c-39.6-27.5-83.8-41.2-132.5-41.2c-31.7,0-62,6.1-90.9,18.4s-53.8,28.9-74.7,49.8
		c-20.9,20.9-37.5,45.8-49.8,74.7s-18.4,59.2-18.4,90.9c0,31.7,6.1,62,18.4,90.9s28.9,53.8,49.8,74.7c20.9,20.9,45.8,37.5,74.7,49.8
		c28.9,12.3,59.2,18.4,90.9,18.4s62-6.1,90.9-18.4c28.9-12.3,53.8-28.9,74.7-49.8c20.9-20.9,37.5-45.8,49.8-74.7
		c12.3-28.9,18.4-59.2,18.4-90.9c0-48.7-13.7-92.9-41.2-132.5l113.9-113.9C508.1,629.5,512.2,619.5,512.2,607.8z"/>
</g>
</svg>
